# xmcd CD database file
#
# Track frame offsets:
#	150
#	23165
#	40000
#
# Disc length: 839 seconds
#
# Revision: 0
# Processed by: cddbd v1.5PL3 Copyright (c) Steve Scherf et al.
# Submitted via: CDex 1.51
#
DISCID=18034503
DTITLE=7HOUSE - 0 EDIT
DYEAR=1900
DGENRE=JPop
TTITLE0=0 EDIT
TTITLE1=Paっと!
TTITLE2=0 EDIT(instrumental)
EXTD=
EXTT0=
EXTT1=
EXTT2=
PLAYORDER=
